<svg width="200" height="200" viewBox="0 0 200 200" fill="none" xmlns="http://www.w3.org/2000/svg">
<circle cx="100" cy="100" r="100" fill="#00A2DC"/>
<path fill-rule="evenodd" clip-rule="evenodd" d="M53.384 107.09C53.1571 106.961 52.9244 106.836 52.6844 106.72C52.9151 106.844 53.1483 106.967 53.384 107.09Z" fill="#E3FFFE"/>
<path fill-rule="evenodd" clip-rule="evenodd" d="M53.419 107.108C53.4211 107.109 53.4292 107.114 53.4311 107.115C53.4272 107.112 53.423 107.111 53.419 107.108C53.4131 107.105 53.4067 107.102 53.4007 107.099C53.3953 107.096 53.3895 107.093 53.384 107.09C53.1571 106.961 52.9244 106.836 52.6844 106.72C52.9151 106.844 53.1483 106.967 53.384 107.09L53.4007 107.099L53.419 107.108C53.421 107.11 53.417 107.107 53.419 107.108Z" fill="#E3FFFE"/>
<path fill-rule="evenodd" clip-rule="evenodd" d="M53.419 107.108C53.4211 107.109 53.4292 107.114 53.4311 107.115C53.4272 107.112 53.423 107.111 53.419 107.108C53.4131 107.105 53.4067 107.102 53.4007 107.099C53.3953 107.096 53.3895 107.093 53.384 107.09C53.3809 107.089 53.387 107.092 53.384 107.09C53.3866 107.091 53.3983 107.097 53.4007 107.099C53.4037 107.101 53.416 107.107 53.419 107.108C53.4221 107.11 53.416 107.107 53.419 107.108C53.421 107.11 53.417 107.107 53.419 107.108Z" fill="#E3FFFE"/>
<path d="M53.384 107.09C53.1571 106.961 52.9244 106.836 52.6844 106.72C32.78 96.0969 31.4718 86.0168 37.4212 68.8467C43.0942 52.4741 102.13 20.8941 136.383 40.67C170.636 60.446 167.127 126.695 160.246 139.76C154.959 147.385 138.801 155.18 124.461 147.789C126.862 154.75 126.864 163.878 124.593 167.812C121.161 173.756 112.817 172.972 105.429 168.707C98.0416 164.442 98.0399 154.826 101.472 148.881C98.0399 154.826 89.1036 159.281 81.7157 155.016C74.3278 150.75 76.7583 142.539 80.1905 136.594C76.7583 142.539 64.7819 145.239 57.3939 140.974C50.5895 137.045 54.1771 130.96 57.4677 125.379C57.7498 124.901 58.0298 124.426 58.3009 123.956C54.8687 129.901 40.4601 131.197 33.0722 126.931C25.6843 122.666 24.482 117.938 27.9141 111.994C31.2341 106.243 45.0951 103.061 52.6844 106.72C52.9151 106.844 53.1483 106.967 53.384 107.09Z" fill="#E3FFFE"/>
<path d="M85.245 38.0671C87.3268 44.1802 100.914 49.0875 112.177 49.646C114.081 63.4321 126.424 70.6574 139.15 65.4345C143.431 73.9745 156.267 85.6943 163.615 84.5646" stroke="#00A2DC" stroke-width="6"/>
</svg>
